<?xml version="1.0" encoding="UTF-8" standalone="no"?>
<svg
   xmlns:dc="http://purl.org/dc/elements/1.1/"
   xmlns:cc="http://creativecommons.org/ns#"
   xmlns:rdf="http://www.w3.org/1999/02/22-rdf-syntax-ns#"
   xmlns:svg="http://www.w3.org/2000/svg"
   xmlns="http://www.w3.org/2000/svg"
   xmlns:sodipodi="http://sodipodi.sourceforge.net/DTD/sodipodi-0.dtd"
   xmlns:inkscape="http://www.inkscape.org/namespaces/inkscape"
   width="64"
   height="64"
   viewBox="0 0 64 64"
   version="1.1"
   id="svg14"
   sodipodi:docname="icon-m-lights.svg"
   inkscape:version="0.92.3 (2405546, 2018-03-11)">
  <metadata
     id="metadata18">
    <rdf:RDF>
      <cc:Work
         rdf:about="">
        <dc:format>image/svg+xml</dc:format>
        <dc:type
           rdf:resource="http://purl.org/dc/dcmitype/StillImage" />
        <dc:title>bulbGroup</dc:title>
      </cc:Work>
    </rdf:RDF>
  </metadata>
  <sodipodi:namedview
     pagecolor="#ffffff"
     bordercolor="#666666"
     borderopacity="1"
     objecttolerance="10"
     gridtolerance="10"
     guidetolerance="10"
     inkscape:pageopacity="0"
     inkscape:pageshadow="2"
     inkscape:window-width="3200"
     inkscape:window-height="1739"
     id="namedview16"
     showgrid="false"
     inkscape:zoom="7.375"
     inkscape:cx="-34.305084"
     inkscape:cy="41.220339"
     inkscape:window-x="0"
     inkscape:window-y="33"
     inkscape:window-maximized="1"
     inkscape:current-layer="svg14" />
  <!-- Generator: Sketch 51.3 (57544) - http://www.bohemiancoding.com/sketch -->
  <title
     id="title2">bulbGroup</title>
  <desc
     id="desc4">Created with Sketch.</desc>
  <defs
     id="defs6" />
  <g
     id="g12"
     style="fill:none;fill-rule:evenodd;stroke:#000000;stroke-width:0.45154905;stroke-miterlimit:4;stroke-dasharray:none"
     transform="matrix(2.2148255,0,0,2.2143722,-3.4354683,-3.429441)">
    <g
       id="g10"
       style="fill:none;stroke:#000000;stroke-width:0.45154905;stroke-miterlimit:4;stroke-dasharray:none">
      <path
         d="m 16.342531,24.006647 c 1.215,0.116 2.552,0.16 3.5,0.16 0.949,0 2.285,-0.044 3.5,-0.16 l -0.584,3.625 c -0.03,0.255 -0.154,0.491 -0.35,0.669 l -0.545,0.495 c -0.036,0.033 -0.071,0.069 -0.102,0.107 l -0.575,0.681 c -0.223,0.263 -0.561,0.416 -0.917,0.416 h -0.427 -0.426 c -0.357,0 -0.695,-0.153 -0.917,-0.416 l -0.575,-0.681 c -0.032,-0.038 -0.066,-0.074 -0.103,-0.107 l -0.544,-0.495 c -0.197,-0.178 -0.32,-0.414 -0.351,-0.669 z m -9.1133004,-2.1318 c 0.904,0.087 1.897,0.119 2.604,0.119 0.7060004,0 1.7000004,-0.032 2.6030004,-0.119 l -0.436,2.363 c -0.023,0.19 -0.116,0.366 -0.26,0.498 l -0.406,0.368 c -0.027,0.025 -0.053,0.051 -0.077,0.08 l -0.427,0.506 c -0.165,0.196 -0.416,0.31 -0.682,0.31 h -0.3170004 -0.318 c -0.265,0 -0.516,-0.114 -0.681,-0.31 l -0.428,-0.506 c -0.025,-0.029 -0.05,-0.055 -0.077,-0.08 l -0.406,-0.368 c -0.145,-0.132 -0.237,-0.308 -0.259,-0.498 z M 27.187231,3.6307472 c 1.779,1.637 0.16,4.65 -0.384,5.726 -1.465,0.426 -3.809,0.8099998 -6.966,0.8099998 -3.155,0 -5.5,-0.3839998 -6.964,-0.8099998 -0.544,-1.076 -2.165,-4.089 -0.385,-5.726 1.902,-1.749 7.029,-1.629 7.349,-1.629 0.322,0 5.449,-0.12 7.35,1.629 z m -7.3496,7.7020998 c 1.777,0 4.368,-0.166 6.459,-0.645 -1.584,4.922 -1.855,9.425 -1.801,10.707 0.012,0.295 -0.089,0.578 -0.284,0.802 l -0.515,0.589 c -1.108,0.131 -2.395,0.214 -3.859,0.214 -1.464,0 -2.75,-0.083 -3.859,-0.214 l -0.515,-0.589 c -0.194,-0.224 -0.296,-0.507 -0.283,-0.802 0.053,-1.282 -0.217,-5.785 -1.801,-10.707 2.091,0.479 4.682,0.645 6.458,0.645 z m -7.1533,0.4971 c -0.813,0.104 -1.765,0.17 -2.8540004,0.17 -2.254,0 -3.93,-0.281 -4.976,-0.596 -0.389,-0.79 -1.545,-3.0039998 -0.274,-4.2059998 1.358,-1.285 5.02,-1.197 5.25,-1.197 0.063,0 0.3950004,-0.006 0.8630004,0.012 0.122,1.497 0.863,2.853 1.232,3.687 0,0 0.244,0.5919998 0.502,1.2949998 0.09,0.279 0.176,0.558 0.257,0.835 z m 0.2627,0.9404 c 0.236,0.891 0.431,1.759 0.592,2.586 -0.442,2.167 -0.535,3.915 -0.509,4.54 0.009,0.204 -0.061,0.397 -0.194,0.552 l -0.354,0.404 c -0.763,0.09 -1.646,0.147 -2.6520004,0.147 -1.006,0 -1.891,-0.057 -2.653,-0.147 l -0.353,-0.404 c -0.134,-0.155 -0.203,-0.348 -0.195,-0.552 0.037,-0.881 -0.149,-3.975 -1.238,-7.356 1.437,0.328 3.218,0.442 4.439,0.442 0.8650004,0 2.0110004,-0.062 3.1170004,-0.212 z"
         id="path8"
         style="fill:none;stroke:#000000;stroke-width:0.45154905;stroke-miterlimit:4;stroke-dasharray:none"
         inkscape:connector-curvature="0" />
    </g>
  </g>
</svg>
