<?xml version="1.0" encoding="UTF-8" standalone="no"?>
<svg
   xmlns:dc="http://purl.org/dc/elements/1.1/"
   xmlns:cc="http://creativecommons.org/ns#"
   xmlns:rdf="http://www.w3.org/1999/02/22-rdf-syntax-ns#"
   xmlns:svg="http://www.w3.org/2000/svg"
   xmlns="http://www.w3.org/2000/svg"
   xmlns:sodipodi="http://sodipodi.sourceforge.net/DTD/sodipodi-0.dtd"
   xmlns:inkscape="http://www.inkscape.org/namespaces/inkscape"
   width="32px"
   height="32px"
   viewBox="0 0 32 32"
   version="1.1"
   id="svg14"
   sodipodi:docname="icon-s-alarm.svg"
   inkscape:version="0.92.3 (2405546, 2018-03-11)">
  <metadata
     id="metadata18">
    <rdf:RDF>
      <cc:Work
         rdf:about="">
        <dc:format>image/svg+xml</dc:format>
        <dc:type
           rdf:resource="http://purl.org/dc/dcmitype/StillImage" />
        <dc:title>routinesTimers</dc:title>
      </cc:Work>
    </rdf:RDF>
  </metadata>
  <sodipodi:namedview
     pagecolor="#ffffff"
     bordercolor="#666666"
     borderopacity="1"
     objecttolerance="10000"
     gridtolerance="10000"
     guidetolerance="10000"
     inkscape:pageopacity="0"
     inkscape:pageshadow="2"
     inkscape:window-width="1600"
     inkscape:window-height="1737"
     id="namedview16"
     showgrid="true"
     inkscape:zoom="7.375"
     inkscape:cx="-10.092901"
     inkscape:cy="7.7117459"
     inkscape:window-x="1600"
     inkscape:window-y="33"
     inkscape:window-maximized="0"
     inkscape:current-layer="layer1"
     inkscape:snap-page="true">
    <inkscape:grid
       type="xygrid"
       id="grid821" />
  </sodipodi:namedview>
  <!-- Generator: Sketch 51.3 (57544) - http://www.bohemiancoding.com/sketch -->
  <title
     id="title2">routinesTimers</title>
  <desc
     id="desc4">Created with Sketch.</desc>
  <defs
     id="defs6" />
  <g
     inkscape:groupmode="layer"
     id="layer1"
     inkscape:label="Bell"
     style="display:inline">
    <path
       id="path835"
       d="m 23.803412,3.4101254 c 2.075422,1.7883107 3.275551,4.3535604 3.682077,7.0234366 l 2.10849,14.972999 c 0.177005,1.168313 -0.750809,2.218438 -1.964552,2.218438 h -7.73956 c 0,2.140938 -1.740866,3.875001 -3.890204,3.875001 -2.147393,0 -3.890204,-1.734063 -3.890204,-3.875001 H 4.3718442 c -1.215689,0 -2.1473928,-1.054001 -1.9645532,-2.22425 L 4.3290522,10.400624 C 4.7433588,7.7462486 5.9415419,5.2003725 8.0052939,3.4178742 10.109894,1.602438 12.877774,0.49999984 15.908244,0.49999984 c 3.028523,0 5.792513,1.09856226 7.895168,2.91012556 z"
       style="fill:none;fill-rule:evenodd;stroke:#000000;stroke-width:1;stroke-miterlimit:4;stroke-dasharray:none"
       inkscape:connector-curvature="0" />
  </g>
  <g
     inkscape:groupmode="layer"
     id="layer2"
     inkscape:label="Original ring"
     style="display:none">
    <g
       id="g840"
       transform="matrix(0.98393127,0,0,0.98412697,0.25709952,0.25396843)"
       style="stroke-width:1.01623011">
      <path
         id="path833"
         d="m 26.770002,4.5485088 c 0.524724,0.4987582 0.547081,1.3308971 0.04603,1.8559059 -0.257759,0.2703795 -0.604945,0.4081943 -0.952131,0.4081943 -0.326145,0 -0.652289,-0.1194395 -0.907419,-0.362256 C 22.52618,4.144252 19.344956,2.8750433 16.00066,2.8750433 12.655048,2.8750433 9.4738238,4.144252 7.0435218,6.450353 6.5161647,6.9517363 5.6837072,6.9281109 5.1839696,6.4044147 4.682917,5.8794059 4.7052737,5.047267 5.2299981,4.5485088 8.1534628,1.7764625 11.97777,0.24999955 16.000658,0.24999955 c 4.021572,0 7.845879,1.52646295 10.769344,4.29850925 z"
         style="fill:none;fill-rule:evenodd;stroke:#000000;stroke-width:1.01623011;stroke-miterlimit:4;stroke-dasharray:none"
         inkscape:connector-curvature="0" />
      <path
         id="path8"
         d="m 10.345338,10.374137 c -0.256444,0.250692 -0.5878492,0.375381 -0.9205692,0.375381 -0.341926,0 -0.682536,-0.131252 -0.93898,-0.393756 -0.508944,-0.5171338 -0.501053,-1.3492726 0.01841,-1.8559061 1.9489762,-1.9070943 4.6817522,-3.0004251 7.4960632,-3.0004251 2.933986,0 5.603636,1.0723304 7.514475,3.0188004 0.507628,0.5171336 0.501052,1.3492725 -0.01841,1.8559058 -0.520779,0.509259 -1.351921,0.498759 -1.859549,-0.01837 -1.412417,-1.4385238 -3.415312,-2.2312871 -5.636514,-2.2312871 -2.100213,0 -4.214892,0.8413266 -5.654925,2.2496631 z"
         style="fill:none;fill-rule:evenodd;stroke:#000000;stroke-width:1.01623011;stroke-miterlimit:4;stroke-dasharray:none"
         inkscape:connector-curvature="0" />
    </g>
  </g>
  <g
     inkscape:groupmode="layer"
     id="layer3"
     inkscape:label="New rings"
     style="display:inline" />
</svg>
