<?xml version="1.0" encoding="UTF-8" standalone="no"?>
<svg
   xmlns:dc="http://purl.org/dc/elements/1.1/"
   xmlns:cc="http://creativecommons.org/ns#"
   xmlns:rdf="http://www.w3.org/1999/02/22-rdf-syntax-ns#"
   xmlns:svg="http://www.w3.org/2000/svg"
   xmlns="http://www.w3.org/2000/svg"
   xmlns:sodipodi="http://sodipodi.sourceforge.net/DTD/sodipodi-0.dtd"
   xmlns:inkscape="http://www.inkscape.org/namespaces/inkscape"
   width="64"
   height="64"
   viewBox="0 0 64 64"
   version="1.1"
   id="svg14"
   sodipodi:docname="icon-m-switches.svg"
   inkscape:version="0.92.3 (2405546, 2018-03-11)">
  <metadata
     id="metadata18">
    <rdf:RDF>
      <cc:Work
         rdf:about="">
        <dc:format>image/svg+xml</dc:format>
        <dc:type
           rdf:resource="http://purl.org/dc/dcmitype/StillImage" />
        <dc:title>uicontrolsSwitchOn</dc:title>
      </cc:Work>
    </rdf:RDF>
  </metadata>
  <sodipodi:namedview
     pagecolor="#ffffff"
     bordercolor="#666666"
     borderopacity="1"
     objecttolerance="10"
     gridtolerance="10"
     guidetolerance="10"
     inkscape:pageopacity="0"
     inkscape:pageshadow="2"
     inkscape:window-width="3200"
     inkscape:window-height="1739"
     id="namedview16"
     showgrid="false"
     inkscape:zoom="7.375"
     inkscape:cx="-36.474576"
     inkscape:cy="16"
     inkscape:window-x="0"
     inkscape:window-y="33"
     inkscape:window-maximized="1"
     inkscape:current-layer="svg14"
     scale-x="1.2" />
  <!-- Generator: Sketch 51.3 (57544) - http://www.bohemiancoding.com/sketch -->
  <title
     id="title2">uicontrolsSwitchOn</title>
  <desc
     id="desc4">Created with Sketch.</desc>
  <defs
     id="defs6" />
  <g
     id="g12"
     style="fill:none;fill-rule:evenodd;stroke:#000000;stroke-width:0.38709678;stroke-miterlimit:4;stroke-dasharray:none"
     transform="matrix(2.5833333,0,0,2.5833333,-9.3333328,-9.3333328)">
    <g
       id="g10"
       style="fill:none;stroke:#000000;stroke-width:0.38709678;stroke-miterlimit:4;stroke-dasharray:none">
      <path
         d="m 14,20 v -8 c 0,-1.1 0.9,-2 2,-2 1.1,0 2,0.9 2,2 v 8 c 0,1.1 -0.9,2 -2,2 -1.1,0 -2,-0.9 -2,-2 M 28,16 C 28,9.373 22.627,4 16,4 9.373,4 4,9.373 4,16 c 0,6.627 5.373,12 12,12 6.627,0 12,-5.373 12,-12"
         id="path8"
         inkscape:connector-curvature="0"
         style="fill:none;stroke:#000000;stroke-width:0.38709678;stroke-miterlimit:4;stroke-dasharray:none" />
    </g>
  </g>
</svg>
