<?xml version="1.0" encoding="UTF-8" standalone="no"?>
<svg
   xmlns:dc="http://purl.org/dc/elements/1.1/"
   xmlns:cc="http://creativecommons.org/ns#"
   xmlns:rdf="http://www.w3.org/1999/02/22-rdf-syntax-ns#"
   xmlns:svg="http://www.w3.org/2000/svg"
   xmlns="http://www.w3.org/2000/svg"
   xmlns:sodipodi="http://sodipodi.sourceforge.net/DTD/sodipodi-0.dtd"
   xmlns:inkscape="http://www.inkscape.org/namespaces/inkscape"
   width="64"
   height="64"
   viewBox="0 0 64 64"
   version="1.1"
   id="svg14"
   sodipodi:docname="icon-m-weekday.svg"
   inkscape:version="0.92.3 (2405546, 2018-03-11)">
  <metadata
     id="metadata18">
    <rdf:RDF>
      <cc:Work
         rdf:about="">
        <dc:format>image/svg+xml</dc:format>
        <dc:type
           rdf:resource="http://purl.org/dc/dcmitype/StillImage" />
        <dc:title>routinesTimers</dc:title>
      </cc:Work>
    </rdf:RDF>
  </metadata>
  <sodipodi:namedview
     pagecolor="#ffffff"
     bordercolor="#666666"
     borderopacity="1"
     objecttolerance="10000"
     gridtolerance="10000"
     guidetolerance="10000"
     inkscape:pageopacity="0"
     inkscape:pageshadow="2"
     inkscape:window-width="1600"
     inkscape:window-height="1737"
     id="namedview16"
     showgrid="true"
     inkscape:zoom="5.2149125"
     inkscape:cx="38.297425"
     inkscape:cy="17.40835"
     inkscape:window-x="1600"
     inkscape:window-y="33"
     inkscape:window-maximized="0"
     inkscape:current-layer="layer4"
     inkscape:snap-page="true">
    <inkscape:grid
       type="xygrid"
       id="grid821" />
  </sodipodi:namedview>
  <!-- Generator: Sketch 51.3 (57544) - http://www.bohemiancoding.com/sketch -->
  <title
     id="title2">routinesTimers</title>
  <desc
     id="desc4">Created with Sketch.</desc>
  <defs
     id="defs6" />
  <g
     inkscape:groupmode="layer"
     id="layer1"
     inkscape:label="Bell"
     style="display:inline"
     transform="translate(0,32)">
    <g
       id="g827"
       transform="matrix(1.6363636,0,0,1.6043763,5.8181817,-26.679609)"
       style="display:inline;stroke-width:0.61717308">
      <path
         inkscape:connector-curvature="0"
         style="display:inline;fill:none;fill-rule:evenodd;stroke:#000000;stroke-width:0.61717296;stroke-miterlimit:4;stroke-dasharray:none"
         d="m 23.334767,4.79971 c 1.949983,1.6798771 3.077574,4.0895861 3.459531,6.597576 l 1.981051,14.06513 c 0.166308,1.097473 -0.705436,2.083924 -1.845812,2.083924 h -7.271776 c 0,2.011127 -1.635645,3.640046 -3.655074,3.640046 -2.017608,0 -3.655077,-1.628918 -3.655077,-3.640046 H 5.0776621 c -1.1422113,0 -2.0176029,-0.990092 -1.8458135,-2.089382 L 5.0374571,11.366346 C 5.4267227,8.8729178 6.5524865,6.4814059 8.4915024,4.8069863 10.4689,3.1016271 13.069488,2.0660352 15.916789,2.0660352 c 2.84548,0 5.442409,1.0319519 7.417978,2.7336748 z"
         id="path835-3-3" />
    </g>
  </g>
  <g
     inkscape:groupmode="layer"
     id="layer4"
     inkscape:label="Repeat"
     transform="translate(0,32)"
     style="display:inline">
    <g
       id="icon-m-repeat"
       transform="matrix(0.53125,0,0,0.53125,15,-17)"
       style="display:inline;fill:#000000;stroke-width:1.16173756">
      <rect
         height="64"
         width="64"
         style="opacity:0;fill:#000000;stroke-width:1.16173756"
         id="icon-m-repeat_1_"
         x="0"
         y="0" />
      <path
         id="path867"
         d="M 39.6,51.931 H 24.29 c -9.897,0 -17.65,-7.563 -17.65,-17.217 0,-8.87 6.705,-16.315 15.596,-17.319 l 0.112,-0.006 h 3.587 c 0.552,0 1,0.448 1,1 0,0.552 -0.448,1 -1,1 h -3.53 C 14.554,20.302 8.64,26.881 8.64,34.714 c 0,8.533 6.874,15.217 15.65,15.217 H 39.6 c 8.838,0 15.761,-6.731 15.761,-15.325 0,-7.177 -4.894,-13.312 -11.901,-14.917 L 40.733,19.27 c -0.546,-0.084 -0.92,-0.595 -0.836,-1.141 0.084,-0.546 0.595,-0.917 1.141,-0.835 l 2.798,0.433 c 7.993,1.829 13.525,8.765 13.525,16.88 C 57.36,44.158 49.393,51.931 39.6,51.931 Z"
         style="opacity:0.6;fill:#000000;stroke-width:1.16173756"
         inkscape:connector-curvature="0" />
      <g
         id="XMLID_13_"
         style="fill:#000000;stroke-width:1.16173756">
        <path
           id="path869"
           d="m 26.712,28.681 c -0.264,0 -0.519,-0.058 -0.754,-0.176 -0.65,-0.325 -1.022,-1.038 -1.022,-1.955 V 9.671 c 0,-0.917 0.373,-1.629 1.022,-1.955 0.649,-0.326 1.444,-0.196 2.178,0.354 l 10.72,8.041 c 0.674,0.505 1.061,1.234 1.061,2 0,0.766 -0.387,1.494 -1.061,2 l -10.72,8.04 c -0.468,0.35 -0.96,0.53 -1.424,0.53 z m 0.224,-19.01 v 16.88 c 0,0 0,0 0,0 v 0 l 10.72,-8.04 c 0.167,-0.126 0.26,-0.268 0.26,-0.4 0,-0.132 -0.093,-0.274 -0.261,-0.4 z"
           style="fill:#000000;stroke-width:1.16173756"
           inkscape:connector-curvature="0" />
      </g>
    </g>
  </g>
</svg>
