<?xml version="1.0" encoding="UTF-8" standalone="no"?>
<svg
   xmlns:dc="http://purl.org/dc/elements/1.1/"
   xmlns:cc="http://creativecommons.org/ns#"
   xmlns:rdf="http://www.w3.org/1999/02/22-rdf-syntax-ns#"
   xmlns:svg="http://www.w3.org/2000/svg"
   xmlns="http://www.w3.org/2000/svg"
   xmlns:sodipodi="http://sodipodi.sourceforge.net/DTD/sodipodi-0.dtd"
   xmlns:inkscape="http://www.inkscape.org/namespaces/inkscape"
   width="64"
   height="64"
   viewBox="0 0 64 64"
   version="1.1"
   id="svg14"
   sodipodi:docname="icon-m-bridge.svg"
   inkscape:version="0.92.3 (2405546, 2018-03-11)">
  <metadata
     id="metadata18">
    <rdf:RDF>
      <cc:Work
         rdf:about="">
        <dc:format>image/svg+xml</dc:format>
        <dc:type
           rdf:resource="http://purl.org/dc/dcmitype/StillImage" />
        <dc:title>devicesBridgesV2</dc:title>
      </cc:Work>
    </rdf:RDF>
  </metadata>
  <sodipodi:namedview
     pagecolor="#ffffff"
     bordercolor="#666666"
     borderopacity="1"
     objecttolerance="10"
     gridtolerance="10"
     guidetolerance="10"
     inkscape:pageopacity="0"
     inkscape:pageshadow="2"
     inkscape:window-width="3200"
     inkscape:window-height="1739"
     id="namedview16"
     showgrid="false"
     inkscape:zoom="7.375"
     inkscape:cx="-36.474576"
     inkscape:cy="16"
     inkscape:window-x="0"
     inkscape:window-y="33"
     inkscape:window-maximized="1"
     inkscape:current-layer="svg14" />
  <!-- Generator: Sketch 51.3 (57544) - http://www.bohemiancoding.com/sketch -->
  <title
     id="title2">devicesBridgesV2</title>
  <desc
     id="desc4">Created with Sketch.</desc>
  <defs
     id="defs6" />
  <g
     id="g12"
     style="fill:none;fill-rule:evenodd;stroke:#000000;stroke-width:0.38709678;stroke-miterlimit:4;stroke-dasharray:none"
     transform="matrix(2.5833333,0,0,2.5833333,-9.3333328,-9.3333328)">
    <g
       id="g10"
       style="fill:none;stroke:#000000;stroke-width:0.38709678;stroke-miterlimit:4;stroke-dasharray:none">
      <path
         d="m 22,8 c -0.553,0 -1,-0.447 -1,-1 0,-0.553 0.447,-1 1,-1 0.553,0 1,0.447 1,1 0,0.553 -0.447,1 -1,1 z m -6,4 c 2.209,0 4,1.791 4,4 0,2.209 -1.791,4 -4,4 -2.209,0 -4,-1.791 -4,-4 0,-2.209 1.791,-4 4,-4 z m 0,10 c -3.309,0 -6,-2.691 -6,-6 0,-3.309 2.691,-6 6,-6 3.309,0 6,2.691 6,6 0,3.309 -2.691,6 -6,6 M 9,7 C 9,6.447 9.447,6 10,6 10.553,6 11,6.447 11,7 11,7.553 10.553,8 10,8 9.447,8 9,7.553 9,7 m 7,-1 c 0.553,0 1,0.447 1,1 0,0.553 -0.447,1 -1,1 C 15.447,8 15,7.553 15,7 15,6.447 15.447,6 16,6 M 24,4 H 8 C 5.8,4 4,5.8 4,8 v 16 c 0,2.2 1.8,4 4,4 h 16 c 2.2,0 4,-1.8 4,-4 V 8 C 28,5.8 26.2,4 24,4"
         id="path8"
         inkscape:connector-curvature="0"
         style="fill:none;stroke:#000000;stroke-width:0.38709678;stroke-miterlimit:4;stroke-dasharray:none" />
    </g>
  </g>
</svg>
