<?xml version="1.0" encoding="UTF-8" standalone="no"?>
<svg
   xmlns:dc="http://purl.org/dc/elements/1.1/"
   xmlns:cc="http://creativecommons.org/ns#"
   xmlns:rdf="http://www.w3.org/1999/02/22-rdf-syntax-ns#"
   xmlns:svg="http://www.w3.org/2000/svg"
   xmlns="http://www.w3.org/2000/svg"
   xmlns:sodipodi="http://sodipodi.sourceforge.net/DTD/sodipodi-0.dtd"
   xmlns:inkscape="http://www.inkscape.org/namespaces/inkscape"
   width="64"
   height="64"
   viewBox="0 0 64 64"
   version="1.1"
   id="svg14"
   sodipodi:docname="icon-m-rules.svg"
   inkscape:version="0.92.3 (2405546, 2018-03-11)">
  <metadata
     id="metadata18">
    <rdf:RDF>
      <cc:Work
         rdf:about="">
        <dc:format>image/svg+xml</dc:format>
        <dc:type
           rdf:resource="http://purl.org/dc/dcmitype/StillImage" />
        <dc:title>uicontrolsEdit</dc:title>
      </cc:Work>
    </rdf:RDF>
  </metadata>
  <sodipodi:namedview
     pagecolor="#ffffff"
     bordercolor="#666666"
     borderopacity="1"
     objecttolerance="10"
     gridtolerance="10"
     guidetolerance="10"
     inkscape:pageopacity="0"
     inkscape:pageshadow="2"
     inkscape:window-width="3200"
     inkscape:window-height="1739"
     id="namedview16"
     showgrid="false"
     inkscape:zoom="7.375"
     inkscape:cx="-36.474576"
     inkscape:cy="16"
     inkscape:window-x="0"
     inkscape:window-y="33"
     inkscape:window-maximized="1"
     inkscape:current-layer="svg14" />
  <!-- Generator: Sketch 51.3 (57544) - http://www.bohemiancoding.com/sketch -->
  <title
     id="title2">uicontrolsEdit</title>
  <desc
     id="desc4">Created with Sketch.</desc>
  <defs
     id="defs6" />
  <g
     id="g12"
     style="fill:none;fill-rule:evenodd;stroke:#000000;stroke-width:0.38702874;stroke-miterlimit:4;stroke-dasharray:none"
     transform="matrix(2.5837904,0,0,2.5837845,-9.3396762,-9.3407685)">
    <g
       id="g10"
       style="fill:none;stroke:#000000;stroke-width:0.38702874;stroke-miterlimit:4;stroke-dasharray:none">
      <path
         d="m 25.229189,9.5985 -1.768,1.768 -2.828,-2.829 1.768,-1.767 c 0.195,-0.195 0.512,-0.195 0.707,0 l 2.121,2.121 c 0.195,0.195 0.195,0.512 0,0.707 z M 6.1601892,26.4535 c -0.373,0.102 -0.716,-0.241 -0.615,-0.614 l 1.212,-3.426 2.828,2.829 z m 21.5469998,-17.918 -4.243,-4.243 c -0.39,-0.39 -1.024,-0.39 -1.415,0 l -16.3519998,16.353 -1.661,6.09 c -0.203,0.747 0.481,1.431 1.228,1.228 l 6.0899998,-1.661 16.353,-16.353 c 0.39,-0.39 0.39,-1.024 0,-1.414 z"
         id="path8"
         inkscape:connector-curvature="0"
         style="fill:none;stroke:#000000;stroke-width:0.38702874;stroke-miterlimit:4;stroke-dasharray:none" />
    </g>
  </g>
</svg>
