<?xml version="1.0" encoding="UTF-8" standalone="no"?>
<svg
   xmlns:dc="http://purl.org/dc/elements/1.1/"
   xmlns:cc="http://creativecommons.org/ns#"
   xmlns:rdf="http://www.w3.org/1999/02/22-rdf-syntax-ns#"
   xmlns:svg="http://www.w3.org/2000/svg"
   xmlns="http://www.w3.org/2000/svg"
   xmlns:sodipodi="http://sodipodi.sourceforge.net/DTD/sodipodi-0.dtd"
   xmlns:inkscape="http://www.inkscape.org/namespaces/inkscape"
   width="32px"
   height="32px"
   viewBox="0 0 32 32"
   version="1.1"
   id="svg14"
   sodipodi:docname="daylight.svg"
   inkscape:version="0.92.3 (2405546, 2018-03-11)">
  <metadata
     id="metadata18">
    <rdf:RDF>
      <cc:Work
         rdf:about="">
        <dc:format>image/svg+xml</dc:format>
        <dc:type
           rdf:resource="http://purl.org/dc/dcmitype/StillImage" />
      </cc:Work>
    </rdf:RDF>
  </metadata>
  <sodipodi:namedview
     pagecolor="#ffffff"
     bordercolor="#666666"
     borderopacity="1"
     objecttolerance="10"
     gridtolerance="10"
     guidetolerance="10"
     inkscape:pageopacity="0"
     inkscape:pageshadow="2"
     inkscape:window-width="3200"
     inkscape:window-height="1739"
     id="namedview16"
     showgrid="false"
     inkscape:zoom="14.75"
     inkscape:cx="11.304583"
     inkscape:cy="10.197297"
     inkscape:window-x="0"
     inkscape:window-y="33"
     inkscape:window-maximized="1"
     inkscape:current-layer="g10" />
  <!-- Generator: Sketch 51.3 (57544) - http://www.bohemiancoding.com/sketch -->
  <title
     id="title2">routinesWakeUp</title>
  <desc
     id="desc4">Created with Sketch.</desc>
  <defs
     id="defs6" />
  <g
     id="g12"
     style="fill:none;fill-rule:evenodd;stroke:#1a1a1a;stroke-width:0.50795716;stroke-miterlimit:4;stroke-dasharray:none"
     transform="matrix(0.984375,0,0,0.98429487,0.25,0.25128208)">
    <g
       id="g10"
       style="fill:none;stroke:#1a1a1a;stroke-width:0.50795716;stroke-miterlimit:4;stroke-dasharray:none">
      <path
         d="m 29,22 c 0.553,0 1,0.447 1,1 0,0.553 -0.447,1 -1,1 H 3 C 2.447,24 2,23.553 2,23 2,22.447 2.447,22 3,22 h 4 c 0,-5.522 4.029,-10 9,-10 4.971,0 9,4.478 9,10 z m -5,5.015956 c 0.553,0 1,0.447 1,1 0,0.553 -0.447,1 -1,1 H 8 c -0.553,0 -1,-0.447 -1,-1 0,-0.553 0.447,-1 1,-1 z m 7,-11.031912 c 0.55,0 1,0.45 1,1 0,0.55 -0.45,1 -1,1 h -4 c -0.55,0 -1,-0.45 -1,-1 0,-0.55 0.45,-1 1,-1 z m -25,1 c 0,0.55 -0.45,1 -1,1 H 1 c -0.55,0 -1,-0.45 -1,-1 0,-0.55 0.45,-1 1,-1 h 4 c 0.55,0 1,0.45 1,1 z M 16,8.9840443 c -0.55,0 -1,-0.45 -1,-1 v -4 c 0,-0.55 0.45,-1 1,-1 0.55,0 1,0.45 1,1 v 4 c 0,0.55 -0.45,1 -1,1 z m 7.7061,2.5341997 c -0.389,0.389 -1.025,0.389 -1.414,0 -0.39,-0.389 -0.39,-1.025 0,-1.414 l 2.828,-2.8279997 c 0.389,-0.39 1.025,-0.39 1.414,0 0.389,0.388 0.389,1.025 0,1.414 z m -15.586,0 -2.828,-2.8279997 c -0.39,-0.389 -0.39,-1.026 0,-1.414 0.389,-0.39 1.025,-0.39 1.414,0 l 2.828,2.8279997 c 0.389,0.389 0.389,1.025 0,1.414 -0.389,0.389 -1.025,0.389 -1.414,0 z"
         id="path8"
         style="fill:none;stroke:#1a1a1a;stroke-width:0.50795716;stroke-miterlimit:4;stroke-dasharray:none"
         inkscape:connector-curvature="0"
         sodipodi:nodetypes="sssssscscssssssssssssssssssssssssssssssccccssscccsss" />
    </g>
  </g>
</svg>
