<?xml version="1.0" encoding="UTF-8" standalone="no"?>
<svg
   xmlns:dc="http://purl.org/dc/elements/1.1/"
   xmlns:cc="http://creativecommons.org/ns#"
   xmlns:rdf="http://www.w3.org/1999/02/22-rdf-syntax-ns#"
   xmlns:svg="http://www.w3.org/2000/svg"
   xmlns="http://www.w3.org/2000/svg"
   xmlns:sodipodi="http://sodipodi.sourceforge.net/DTD/sodipodi-0.dtd"
   xmlns:inkscape="http://www.inkscape.org/namespaces/inkscape"
   width="32px"
   height="32px"
   viewBox="0 0 32 32"
   version="1.1"
   id="svg14"
   sodipodi:docname="daylight-sunrise.svg"
   inkscape:version="0.92.3 (2405546, 2018-03-11)">
  <metadata
     id="metadata18">
    <rdf:RDF>
      <cc:Work
         rdf:about="">
        <dc:format>image/svg+xml</dc:format>
        <dc:type
           rdf:resource="http://purl.org/dc/dcmitype/StillImage" />
      </cc:Work>
    </rdf:RDF>
  </metadata>
  <sodipodi:namedview
     pagecolor="#ffffff"
     bordercolor="#666666"
     borderopacity="1"
     objecttolerance="10"
     gridtolerance="10"
     guidetolerance="10"
     inkscape:pageopacity="0"
     inkscape:pageshadow="2"
     inkscape:window-width="3200"
     inkscape:window-height="1739"
     id="namedview16"
     showgrid="false"
     inkscape:zoom="7.375"
     inkscape:cx="16"
     inkscape:cy="16"
     inkscape:window-x="0"
     inkscape:window-y="33"
     inkscape:window-maximized="1"
     inkscape:current-layer="svg14" />
  <!-- Generator: Sketch 51.3 (57544) - http://www.bohemiancoding.com/sketch -->
  <title
     id="title2">routinesSunrise</title>
  <desc
     id="desc4">Created with Sketch.</desc>
  <defs
     id="defs6" />
  <g
     id="g12"
     transform="translate(0,1)"
     style="fill:none;fill-rule:evenodd;stroke:none;stroke-width:1">
    <g
       id="g10"
       style="fill:#101010">
      <path
         d="m 16.6748,20.293 2.995,2.995 c 0.391,0.391 0.391,1.024 0,1.414 -0.195,0.195 -0.451,0.293 -0.707,0.293 -0.256,0 -0.512,-0.098 -0.707,-0.293 l -1.284,-1.284 0.002,3.582 c 0,0.552 -0.447,1 -1,1 -0.552,0 -1,-0.447 -1,-1 l -0.002,-3.59 -1.292,1.292 c -0.391,0.391 -1.024,0.391 -1.414,0 -0.391,-0.39 -0.391,-1.023 0,-1.414 l 2.995,-2.995 c 0.391,-0.391 1.023,-0.391 1.414,0 z M 31,17 c 0.55,0 1,0.45 1,1 0,0.55 -0.45,1 -1,1 h -4 c -0.55,0 -1,-0.45 -1,-1 0,-0.55 0.45,-1 1,-1 z M 5,17 c 0.55,0 1,0.45 1,1 0,0.55 -0.45,1 -1,1 H 1 C 0.45,19 0,18.55 0,18 0,17.45 0.45,17 1,17 Z M 16,10 C 15.45,10 15,9.55 15,9 V 5 c 0,-0.55 0.45,-1 1,-1 0.55,0 1,0.45 1,1 v 4 c 0,0.55 -0.45,1 -1,1 z m 7.7061,2.5342 c -0.39,0.389 -1.025,0.389 -1.414,0 -0.39,-0.389 -0.39,-1.025 0,-1.414 l 2.828,-2.828 c 0.389,-0.39 1.025,-0.39 1.414,0 0.389,0.388 0.389,1.025 0,1.414 z m -15.586,0 -2.828,-2.828 c -0.39,-0.389 -0.39,-1.026 0,-1.414 0.389,-0.39 1.024,-0.39 1.414,0 l 2.828,2.828 c 0.389,0.389 0.389,1.025 0,1.414 -0.389,0.389 -1.025,0.389 -1.414,0 z M 15.9629,12 c 4.971,0 9,4.408 9,10 h -4.12 l -3.378,-3.377 c -0.83,-0.83 -2.174,-0.83 -3.004,0 L 11.0829,22 h -4.12 c 0,-5.592 4.029,-10 9,-10 z"
         id="path8"
         inkscape:connector-curvature="0" />
    </g>
  </g>
</svg>
