<?xml version="1.0" encoding="UTF-8" standalone="no"?>
<svg
   xmlns:dc="http://purl.org/dc/elements/1.1/"
   xmlns:cc="http://creativecommons.org/ns#"
   xmlns:rdf="http://www.w3.org/1999/02/22-rdf-syntax-ns#"
   xmlns:svg="http://www.w3.org/2000/svg"
   xmlns="http://www.w3.org/2000/svg"
   xmlns:sodipodi="http://sodipodi.sourceforge.net/DTD/sodipodi-0.dtd"
   xmlns:inkscape="http://www.inkscape.org/namespaces/inkscape"
   width="32px"
   height="32px"
   viewBox="0 0 32 32"
   version="1.1"
   id="svg14"
   sodipodi:docname="tap-1.svg"
   inkscape:version="0.92.3 (2405546, 2018-03-11)">
  <metadata
     id="metadata18">
    <rdf:RDF>
      <cc:Work
         rdf:about="">
        <dc:format>image/svg+xml</dc:format>
        <dc:type
           rdf:resource="http://purl.org/dc/dcmitype/StillImage" />
      </cc:Work>
    </rdf:RDF>
  </metadata>
  <sodipodi:namedview
     pagecolor="#ffffff"
     bordercolor="#666666"
     borderopacity="1"
     objecttolerance="10"
     gridtolerance="10"
     guidetolerance="10"
     inkscape:pageopacity="0"
     inkscape:pageshadow="2"
     inkscape:window-width="3200"
     inkscape:window-height="1739"
     id="namedview16"
     showgrid="false"
     inkscape:zoom="10.429825"
     inkscape:cx="14.028169"
     inkscape:cy="17.273643"
     inkscape:window-x="0"
     inkscape:window-y="33"
     inkscape:window-maximized="1"
     inkscape:current-layer="g10" />
  <!-- Generator: Sketch 51.3 (57544) - http://www.bohemiancoding.com/sketch -->
  <title
     id="title2">devicesTap</title>
  <desc
     id="desc4">Created with Sketch.</desc>
  <defs
     id="defs6" />
  <g
     stroke="none"
     stroke-width="1"
     fill="none"
     fill-rule="evenodd"
     id="g12"
     style="fill:none;stroke:#000000;stroke-width:0.5;stroke-miterlimit:4;stroke-dasharray:none">
    <g
       fill="#101010"
       id="g10"
       style="fill:none;stroke:#000000;stroke-width:0.5;stroke-miterlimit:4;stroke-dasharray:none">
      <path
         id="path8"
         style="fill:#000000;stroke:#000000;stroke-width:0.5;stroke-miterlimit:4;stroke-dasharray:none"
         d="M 15.999999,0.25 C 7.3020623,0.25 0.24999985,7.3020625 0.24999985,16 c 0,8.697937 7.05206245,15.75 15.74999915,15.75 C 24.697937,31.75 31.75,24.697937 31.75,16 31.75,7.3020625 24.697937,0.25 15.999999,0.25 M 2.8749999,14.687499 c 0,-2.895375 2.3546249,-5.2499991 5.2500002,-5.2499991 2.8953749,0 5.2499999,2.3546241 5.2499999,5.2499991 0,2.895375 -2.354625,5.250001 -5.2499999,5.250001 -2.8953753,0 -5.2500002,-2.354626 -5.2500002,-5.250001 z m 13.1249991,14.4375 C 13.104624,29.124999 10.75,26.770375 10.75,23.875 c 0,-2.895375 2.354624,-5.250001 5.249999,-5.250001 2.895375,0 5.250001,2.354626 5.250001,5.250001 0,2.895375 -2.354626,5.249999 -5.250001,5.249999 z M 23.875,19.9375 c -2.895375,0 -5.250001,-2.354626 -5.250001,-5.250001 0,-2.895375 2.354626,-5.2499991 5.250001,-5.2499991 2.895375,0 5.249999,2.3546241 5.249999,5.2499991 0,2.895375 -2.354624,5.250001 -5.249999,5.250001" />
    </g>
  </g>
</svg>
