<?xml version="1.0" encoding="UTF-8" standalone="no"?>
<svg
   xmlns:dc="http://purl.org/dc/elements/1.1/"
   xmlns:cc="http://creativecommons.org/ns#"
   xmlns:rdf="http://www.w3.org/1999/02/22-rdf-syntax-ns#"
   xmlns:svg="http://www.w3.org/2000/svg"
   xmlns="http://www.w3.org/2000/svg"
   xmlns:sodipodi="http://sodipodi.sourceforge.net/DTD/sodipodi-0.dtd"
   xmlns:inkscape="http://www.inkscape.org/namespaces/inkscape"
   width="32px"
   height="32px"
   viewBox="0 0 32 32"
   version="1.1"
   id="svg14"
   sodipodi:docname="tap.svg"
   inkscape:version="0.92.3 (2405546, 2018-03-11)">
  <metadata
     id="metadata18">
    <rdf:RDF>
      <cc:Work
         rdf:about="">
        <dc:format>image/svg+xml</dc:format>
        <dc:type
           rdf:resource="http://purl.org/dc/dcmitype/StillImage" />
      </cc:Work>
    </rdf:RDF>
  </metadata>
  <sodipodi:namedview
     pagecolor="#ffffff"
     bordercolor="#666666"
     borderopacity="1"
     objecttolerance="10"
     gridtolerance="10"
     guidetolerance="10"
     inkscape:pageopacity="0"
     inkscape:pageshadow="2"
     inkscape:window-width="3200"
     inkscape:window-height="1739"
     id="namedview16"
     showgrid="false"
     inkscape:zoom="10.429825"
     inkscape:cx="7.7001627"
     inkscape:cy="12.192062"
     inkscape:window-x="0"
     inkscape:window-y="33"
     inkscape:window-maximized="1"
     inkscape:current-layer="g10" />
  <!-- Generator: Sketch 51.3 (57544) - http://www.bohemiancoding.com/sketch -->
  <title
     id="title2">devicesTap</title>
  <desc
     id="desc4">Created with Sketch.</desc>
  <defs
     id="defs6" />
  <g
     stroke="none"
     stroke-width="1"
     fill="none"
     fill-rule="evenodd"
     id="g12"
     style="fill:none;stroke:#000000;stroke-width:0.5;stroke-miterlimit:4;stroke-dasharray:none">
    <g
       fill="#101010"
       id="g10"
       style="fill:none;stroke:#000000;stroke-width:0.5;stroke-miterlimit:4;stroke-dasharray:none">
      <path
         d="m 22.719092,19.359546 c -2.470386,0 -4.479395,-2.009009 -4.479395,-4.479395 0,-2.470386 2.009009,-4.479394 4.479395,-4.479394 2.470386,0 4.479394,2.009008 4.479394,4.479394 0,2.470386 -2.009008,4.479395 -4.479394,4.479395 M 16,27.198486 c -2.470386,0 -4.479394,-2.009008 -4.479394,-4.479394 0,-2.470386 2.009008,-4.479395 4.479394,-4.479395 2.470386,0 4.479395,2.009009 4.479395,4.479395 0,2.470386 -2.009009,4.479394 -4.479395,4.479394 z M 4.801514,14.880151 c 0,-2.470386 2.0090084,-4.479394 4.4793945,-4.479394 2.4703865,0 4.4793945,2.009008 4.4793945,4.479394 0,2.470386 -2.009008,4.479395 -4.4793945,4.479395 -2.4703861,0 -4.4793945,-2.009009 -4.4793945,-4.479395 z M 16,2.5618167 C 8.5787634,2.5618167 2.5618167,8.5787634 2.5618167,16 2.5618167,23.421237 8.5787634,29.438184 16,29.438184 23.421237,29.438184 29.438184,23.421237 29.438184,16 29.438184,8.5787634 23.421237,2.5618167 16,2.5618167"
         id="path8"
         style="fill:none;stroke:#000000;stroke-width:0.5;stroke-miterlimit:4;stroke-dasharray:none"
         inkscape:connector-curvature="0"
         sodipodi:nodetypes="cssscsssssssssscsssc" />
    </g>
  </g>
</svg>
