<?xml version="1.0" encoding="UTF-8" standalone="no"?>
<svg
   xmlns:dc="http://purl.org/dc/elements/1.1/"
   xmlns:cc="http://creativecommons.org/ns#"
   xmlns:rdf="http://www.w3.org/1999/02/22-rdf-syntax-ns#"
   xmlns:svg="http://www.w3.org/2000/svg"
   xmlns="http://www.w3.org/2000/svg"
   xmlns:sodipodi="http://sodipodi.sourceforge.net/DTD/sodipodi-0.dtd"
   xmlns:inkscape="http://www.inkscape.org/namespaces/inkscape"
   width="32px"
   height="32px"
   viewBox="0 0 32 32"
   version="1.1"
   id="svg14"
   sodipodi:docname="huego-outline.svg"
   inkscape:version="0.92.3 (2405546, 2018-03-11)">
  <metadata
     id="metadata18">
    <rdf:RDF>
      <cc:Work
         rdf:about="">
        <dc:format>image/svg+xml</dc:format>
        <dc:type
           rdf:resource="http://purl.org/dc/dcmitype/StillImage" />
        <dc:title>heroesHuego</dc:title>
      </cc:Work>
    </rdf:RDF>
  </metadata>
  <sodipodi:namedview
     pagecolor="#ffffff"
     bordercolor="#666666"
     borderopacity="1"
     objecttolerance="10"
     gridtolerance="10"
     guidetolerance="10"
     inkscape:pageopacity="0"
     inkscape:pageshadow="2"
     inkscape:window-width="3200"
     inkscape:window-height="1739"
     id="namedview16"
     showgrid="false"
     inkscape:zoom="7.375"
     inkscape:cx="16"
     inkscape:cy="16"
     inkscape:window-x="0"
     inkscape:window-y="33"
     inkscape:window-maximized="1"
     inkscape:current-layer="svg14" />
  <!-- Generator: Sketch 51.3 (57544) - http://www.bohemiancoding.com/sketch -->
  <title
     id="title2">heroesHuego</title>
  <desc
     id="desc4">Created with Sketch.</desc>
  <defs
     id="defs6" />
  <g
     stroke="none"
     stroke-width="1"
     fill="none"
     fill-rule="evenodd"
     id="g12"
     style="fill:none;stroke:#000000;stroke-width:0.5;stroke-miterlimit:4;stroke-dasharray:none">
    <g
       fill="#101010"
       id="g10"
       style="fill:none;stroke:#000000;stroke-width:0.5;stroke-miterlimit:4;stroke-dasharray:none">
      <path
         d="M22.869,21.0120507 C19.01,18.2850507 13.734,13.0070507 11.007,9.14205068 C8.24,5.22405068 9.082,4.16705068 12.97,6.86505068 C16.912,9.60005068 22.395,15.0870507 25.132,19.0350507 C27.831,22.9290507 26.781,23.7770507 22.869,21.0120507 M26.5,18.6890507 C23.719,14.1410507 17.855,8.27405068 13.315,5.49405068 C11.162,4.17705068 9.67,3.73605068 8.97,4.15005068 C5.984,6.57405068 4,10.6230507 4,14.7710507 C4,18.8930507 5.885,22.5740507 8.838,24.9990507 L8.5,24.9990507 C7.675,24.9990507 7,25.6740507 7,26.4990507 C7,27.3240507 7.675,27.9990507 8.5,27.9990507 L16.371,27.9990507 C16.468,27.9990507 16.561,27.9890507 16.652,27.9710507 C16.842,27.9790507 17.028,27.9990507 17.219,27.9990507 C21.309,27.9990507 25.427,25.9640507 27.851,23.0440507 C28.264,22.3410507 27.819,20.8450507 26.5,18.6890507"
         id="path8"
         style="fill:none;stroke:#000000;stroke-width:0.5;stroke-miterlimit:4;stroke-dasharray:none" />
    </g>
  </g>
</svg>
